<svg xmlns="http://www.w3.org/2000/svg"
 xmlns:xlink="http://www.w3.org/1999/xlink"
 width="187px" height="24px"  viewBox="0 0 187 24">
<path fill-rule="evenodd"  fill="#212121"
 d="M38.497604,20.69915 C38.497604,20.69915 38.497604,3.8736343 38.497604,3.8736343 C38.497604,3.8736343 32.929214,3.8736343 32.929214,3.8736343 C32.929214,3.8736343 32.929214,20.69915 32.929214,20.69915 C32.929214,20.69915 38.497604,20.69915 38.497604,20.69915 ZM62.042297,20.69915 C62.042297,20.69915 62.042297,3.8736343 62.042297,3.8736343 C62.042297,3.8736343 57.00168,3.8736343 57.00168,3.8736343 C57.00168,3.8736343 57.00168,12.514595 57.00168,12.514595 C57.00168,12.514595 50.35324,3.8736343 50.35324,3.8736343 C50.35324,3.8736343 45.69684,3.8736343 45.69684,3.8736343 C45.69684,3.8736343 45.69684,20.69915 45.69684,20.69915 C45.69684,20.69915 50.761322,20.69915 50.761322,20.69915 C50.761322,20.69915 50.761322,12.106522 50.761322,12.106522 C50.761322,12.106522 57.385895,20.69915 57.385895,20.69915 C57.385895,20.69915 62.042297,20.69915 62.042297,20.69915 ZM83.3056,8.266098 C83.3056,8.266098 83.3056,3.8736343 83.3056,3.8736343 C83.3056,3.8736343 68.160446,3.8736343 68.160446,3.8736343 C68.160446,3.8736343 68.160446,8.266098 68.160446,8.266098 C68.160446,8.266098 72.936935,8.266098 72.936935,8.266098 C72.936935,8.266098 72.936935,20.69915 72.936935,20.69915 C72.936935,20.69915 78.505325,20.69915 78.505325,20.69915 C78.505325,20.69915 78.505325,8.266098 78.505325,8.266098 C78.505325,8.266098 83.3056,8.266098 83.3056,8.266098 ZM103.65733,8.097969 C103.65733,8.097969 103.65733,3.8736343 103.65733,3.8736343 C103.65733,3.8736343 89.424484,3.8736343 89.424484,3.8736343 C89.424484,3.8736343 89.424484,20.69915 89.424484,20.69915 C89.424484,20.69915 103.873505,20.69915 103.873505,20.69915 C103.873505,20.69915 103.873505,16.474815 103.873505,16.474815 C103.873505,16.474815 94.992874,16.474815 94.992874,16.474815 C94.992874,16.474815 94.992874,14.386475 94.992874,14.386475 C94.992874,14.386475 102.86545,14.386475 102.86545,14.386475 C102.86545,14.386475 102.86545,10.162483 102.86545,10.162483 C102.86545,10.162483 94.992874,10.162483 94.992874,10.162483 C94.992874,10.162483 94.992874,8.097969 94.992874,8.097969 C94.992874,8.097969 103.65733,8.097969 103.65733,8.097969 ZM120.45688,20.69915 C120.45688,20.69915 126.74527,20.69915 126.74527,20.69915 C126.74527,20.69915 123.43294,15.226784 123.43294,15.226784 C125.16141,14.1707 126.09717,12.346466 126.09717,9.898376 C126.09717,6.057953 123.481064,3.8736343 118.92073,3.8736343 C118.92073,3.8736343 110.78395,3.8736343 110.78395,3.8736343 C110.78395,3.8736343 110.78395,20.69915 110.78395,20.69915 C110.78395,20.69915 116.35234,20.69915 116.35234,20.69915 C116.35234,20.69915 116.35234,16.330849 116.35234,16.330849 C116.35234,16.330849 118.44075,16.330849 118.44075,16.330849 C118.44075,16.330849 120.45688,20.69915 120.45688,20.69915 ZM116.35234,12.106522 C116.35234,12.106522 116.35234,8.097969 116.35234,8.097969 C116.35234,8.097969 118.92073,8.097969 118.92073,8.097969 C120.1207,8.097969 120.81683,8.8181305 120.81683,10.06617 C120.81683,11.362534 120.1207,12.106522 118.92073,12.106522 C118.92073,12.106522 116.35234,12.106522 116.35234,12.106522 ZM138.55214,20.69915 C138.55214,20.69915 138.55214,3.8736343 138.55214,3.8736343 C138.55214,3.8736343 132.98375,3.8736343 132.98375,3.8736343 C132.98375,3.8736343 132.98375,20.69915 132.98375,20.69915 C132.98375,20.69915 138.55214,20.69915 138.55214,20.69915 ZM154.15236,3.7058487 C148.79973,3.7058487 144.91136,7.281822 144.91136,12.274307 C144.91136,17.290962 148.79973,20.93943 154.15236,20.93943 C159.50458,20.93943 163.39294,17.267136 163.39294,12.274307 C163.39294,7.305992 159.50458,3.7058487 154.15236,3.7058487 ZM154.22426,8.338249 C156.14421,8.338249 157.68036,9.994019 157.68036,12.298477 C157.68036,14.602936 156.14421,16.30703 154.22426,16.30703 C152.30396,16.30703 150.62395,14.602936 150.62395,12.298477 C150.62395,9.994019 152.2801,8.338249 154.22426,8.338249 ZM179.42404,20.69915 C179.42404,20.69915 185.71243,20.69915 185.71243,20.69915 C185.71243,20.69915 182.4002,15.226784 182.4002,15.226784 C184.12827,14.1707 185.06433,12.346466 185.06433,9.898376 C185.06433,6.057953 182.44824,3.8736343 177.88791,3.8736343 C177.88791,3.8736343 169.75113,3.8736343 169.75113,3.8736343 C169.75113,3.8736343 169.75113,20.69915 169.75113,20.69915 C169.75113,20.69915 175.31952,20.69915 175.31952,20.69915 C175.31952,20.69915 175.31952,16.330849 175.31952,16.330849 C175.31952,16.330849 177.40793,16.330849 177.40793,16.330849 C177.40793,16.330849 179.42404,20.69915 179.42404,20.69915 ZM175.31952,12.106522 C175.31952,12.106522 175.31952,8.097969 175.31952,8.097969 C175.31952,8.097969 177.88791,8.097969 177.88791,8.097969 C179.08786,8.097969 179.784,8.8181305 179.784,10.06617 C179.784,11.362534 179.08786,12.106522 177.88791,12.106522 C177.88791,12.106522 175.31952,12.106522 175.31952,12.106522 ZM1.249855,11.031036 C1.249855,11.031036 1.249855,1.8438339 1.249855,1.8438339 C1.249855,1.8438339 10.437363,1.8438339 10.437363,1.8438339 C10.437363,1.8438339 10.437363,11.031036 10.437363,11.031036 C10.437363,11.031036 1.249855,11.031036 1.249855,11.031036 C1.249855,11.031036 1.249855,11.031036 1.249855,11.031036 ZM13.062508,1.8438339 C13.062508,1.8438339 22.250015,1.8438339 22.250015,1.8438339 C22.250015,1.8438339 22.250015,11.031036 22.250015,11.031036 C22.250015,11.031036 13.062508,11.031036 13.062508,11.031036 C13.062508,11.031036 13.062508,1.8438339 13.062508,1.8438339 C13.062508,1.8438339 13.062508,1.8438339 13.062508,1.8438339 ZM13.062508,22.843643 C13.062508,22.843643 13.062508,13.656097 13.062508,13.656097 C13.062508,13.656097 22.250015,13.656097 22.250015,13.656097 C22.250015,13.656097 22.250015,22.843643 22.250015,22.843643 C22.250015,22.843643 13.062508,22.843643 13.062508,22.843643 C13.062508,22.843643 13.062508,22.843643 13.062508,22.843643 ZM1.249855,22.843643 C1.249855,22.843643 1.249855,13.656097 1.249855,13.656097 C1.249855,13.656097 10.437363,13.656097 10.437363,13.656097 C10.437363,13.656097 10.437363,22.843643 10.437363,22.843643 C10.437363,22.843643 1.249855,22.843643 1.249855,22.843643 C1.249855,22.843643 1.249855,22.843643 1.249855,22.843643 Z"/>
</svg>