<svg xmlns="http://www.w3.org/2000/svg"
 xmlns:xlink="http://www.w3.org/1999/xlink"
 width="25px" height="25px"  viewBox="0 0 25 25">
<path fill-rule="evenodd"  fill="#000000"
 d="M10.550781,1.5000877 C9.332031,1.5000877 8.160156,1.7424088 7.035034,2.2263794 C5.925415,2.695366 4.9726562,3.328064 4.175659,4.125145 C3.3790283,4.937546 2.7381592,5.8983307 2.2537842,7.0078506 C1.7851562,8.117363 1.5509033,9.281342 1.5509033,10.4997635 C1.5509033,11.718529 1.7851562,12.882843 2.2537842,13.992355 C2.7381592,15.101532 3.3790283,16.06266 4.175659,16.875061 C4.9726562,17.671799 5.925415,18.312668 7.035034,18.79663 C8.160156,19.265625 9.332031,19.500122 10.550781,19.500122 C11.597534,19.500122 12.597534,19.328247 13.550781,18.984161 C14.50354,18.640755 15.370972,18.156448 16.152344,17.531242 C16.152344,17.531242 21.824219,23.203049 21.824219,23.203049 C22.026855,23.406235 22.26941,23.507652 22.55066,23.507652 C22.83191,23.507652 23.066528,23.406235 23.254028,23.203049 C23.441284,23.015518 23.535156,22.781364 23.535156,22.4999 C23.535156,22.21878 23.441284,21.984283 23.254028,21.796753 C23.254028,21.796753 17.58191,16.124947 17.58191,16.124947 C18.206787,15.343857 18.691162,14.469177 19.035278,13.499886 C19.378662,12.546921 19.55066,11.546997 19.55066,10.4997635 C19.55066,9.281342 19.308594,8.117363 18.824219,7.0078506 C18.355469,5.8983307 17.7146,4.937546 16.902466,4.125145 C16.105347,3.328064 15.152344,2.695366 14.043091,2.2263794 C12.933472,1.7424088 11.769531,1.5000877 10.550781,1.5000877 C10.550781,1.5000877 10.550781,1.5000877 10.550781,1.5000877 ZM10.550781,3.4921112 C11.488281,3.4921112 12.394165,3.6796417 13.269531,4.054695 C14.128662,4.429756 14.871094,4.9300613 15.496094,5.5545883 C16.120972,6.1797943 16.621216,6.922081 16.996094,7.781105 C17.355225,8.640472 17.535278,9.547142 17.535278,10.4997635 C17.535278,11.453064 17.355225,12.359398 16.996094,13.218758 C16.621216,14.078125 16.120972,14.820755 15.496094,15.445282 C14.871094,16.070488 14.128662,16.57045 13.269531,16.94551 C12.394165,17.320229 11.488281,17.50776 10.550781,17.50776 C9.597656,17.50776 8.691162,17.320229 7.8320312,16.94551 C6.9570312,16.57045 6.206909,16.070488 5.5820312,15.445282 C4.9570312,14.820755 4.4648438,14.078125 4.105591,13.218758 C3.7303467,12.359398 3.5430908,11.453064 3.5430908,10.4997635 C3.5430908,9.547142 3.7303467,8.640472 4.105591,7.781105 C4.4648438,6.922081 4.9570312,6.1797943 5.5820312,5.5545883 C6.206909,4.9300613 6.9570312,4.429756 7.8320312,4.054695 C8.691162,3.6796417 9.597656,3.4921112 10.550781,3.4921112 C10.550781,3.4921112 10.550781,3.4921112 10.550781,3.4921112 Z"/>
</svg>